<?xml version="1.0" standalone="no"?>
<!DOCTYPE svg PUBLIC "-//W3C//DTD SVG 20010904//EN"
 "http://www.w3.org/TR/2001/REC-SVG-20010904/DTD/svg10.dtd">
<svg version="1.0" xmlns="http://www.w3.org/2000/svg"
 width="1080.000000pt" height="1080.000000pt" viewBox="0 0 1080.000000 1080.000000"
 preserveAspectRatio="xMidYMid meet">

<g transform="translate(0.000000,1080.000000) scale(0.100000,-0.100000)"
fill="#000000" stroke="none">
<path d="M6998 9095 c-97 -26 -181 -72 -388 -208 -224 -148 -324 -185 -455
-166 -80 11 -160 51 -259 129 -78 61 -124 81 -190 83 -104 2 -168 -56 -230
-208 -52 -129 -96 -215 -129 -252 -25 -28 -31 -31 -56 -22 -49 17 -71 45 -71
91 0 40 1 40 19 24 28 -25 83 -31 119 -12 81 42 83 177 4 259 -15 16 -50 34
-80 43 -94 28 -184 -10 -237 -99 -30 -53 -48 -169 -39 -256 7 -64 7 -64 -17
-58 -13 3 -52 11 -86 17 -34 6 -115 26 -180 45 -137 41 -180 43 -241 14 -66
-32 -145 -154 -188 -293 l-18 -59 -259 8 c-282 8 -301 5 -330 -44 -30 -51 -17
-116 31 -147 23 -15 151 -23 505 -34 28 0 20 -36 -15 -65 -17 -15 -81 -51
-141 -81 -60 -30 -129 -71 -155 -92 -54 -44 -114 -133 -131 -194 -11 -39 -18
-46 -71 -71 -32 -16 -83 -54 -114 -85 -124 -125 -157 -295 -85 -447 30 -64
123 -162 209 -221 l70 -48 -17 -25 c-104 -157 -145 -260 -145 -371 0 -111 20
-183 92 -335 74 -155 94 -223 87 -286 -7 -57 -22 -90 -90 -191 l-52 -77 -120
-45 c-561 -211 -1249 -427 -1833 -576 -85 -22 -280 -83 -435 -135 -155 -53
-410 -139 -567 -192 -251 -83 -289 -99 -317 -129 -39 -40 -42 -74 -13 -136 11
-24 42 -95 69 -158 27 -63 66 -151 86 -195 21 -44 57 -122 81 -174 24 -51 44
-96 44 -99 0 -7 193 -395 200 -402 3 -3 25 -43 49 -90 60 -116 239 -413 315
-525 48 -70 177 -256 189 -270 4 -5 31 -41 60 -80 60 -81 232 -296 271 -340
15 -16 44 -50 64 -75 20 -25 53 -63 72 -85 54 -62 526 -535 534 -535 4 0 23
-17 44 -38 20 -21 87 -80 147 -132 61 -52 112 -97 115 -100 3 -3 34 -30 69
-59 35 -29 70 -58 76 -64 7 -7 35 -30 64 -52 28 -22 91 -71 139 -110 48 -38
105 -83 126 -100 124 -97 161 -128 164 -136 2 -5 8 -9 13 -9 5 0 42 -24 82
-54 106 -80 221 -169 227 -175 3 -3 33 -25 67 -49 l62 -42 552 0 552 0 -69 63
c-198 180 -325 336 -399 492 -62 131 -62 131 -8 206 26 35 75 120 110 189 35
69 67 130 73 137 5 7 10 19 10 26 0 8 11 39 25 68 18 39 23 46 20 24 -5 -27
-4 -27 4 -7 6 12 8 28 5 35 -17 44 296 535 333 522 7 -2 10 1 8 8 -6 16 53 80
65 72 6 -4 9 -1 8 7 -2 7 3 12 10 10 6 -1 12 4 12 11 0 21 37 60 49 52 7 -3 8
0 5 9 -7 19 12 22 20 4 2 -7 4 -2 3 12 -2 22 2 25 26 22 15 -1 27 2 27 7 0 6
-8 7 -17 4 -73 -27 199 203 371 315 99 64 114 72 134 66 14 -5 15 -4 2 5 -12
8 -11 11 5 17 11 4 32 16 47 27 14 11 31 17 36 13 6 -3 14 -1 18 5 4 8 3 9 -4
5 -7 -4 -12 -5 -12 -3 0 3 31 23 69 46 157 95 636 299 720 307 19 1 37 6 40
11 3 4 28 16 54 25 36 13 54 15 68 8 12 -7 19 -7 19 -1 0 5 -6 12 -12 14 -7 3
-4 6 8 6 11 1 74 19 140 40 65 22 233 67 372 102 l252 62 53 -58 c48 -53 58
-59 103 -65 60 -7 124 4 184 33 25 12 53 22 63 23 10 1 21 5 25 9 4 5 -2 5
-12 1 -10 -3 2 15 28 41 26 27 58 67 72 89 20 34 32 43 62 49 20 3 111 22 202
42 91 19 181 35 200 36 19 0 38 5 41 10 4 6 19 6 40 -2 30 -9 32 -9 16 3 -17
13 -17 14 5 14 13 0 49 7 82 16 32 10 66 14 74 11 9 -3 13 -3 9 2 -7 6 704
191 739 193 6 0 87 -77 180 -172 93 -94 198 -201 234 -238 120 -121 230 -213
537 -450 53 -41 143 -115 200 -163 l103 -88 0 144 0 143 -167 130 c-314 244
-408 327 -663 583 -344 346 -431 421 -609 522 l-91 52 6 37 c3 21 1 62 -5 91
-14 66 -116 299 -172 394 -23 39 -50 86 -61 105 -35 61 -143 192 -223 270
-157 154 -234 284 -243 412 -4 65 -3 71 12 65 71 -27 142 -15 171 29 22 34 19
96 -6 128 l-20 26 116 0 c160 0 195 21 195 116 0 26 -8 44 -29 65 -29 29 -31
29 -145 29 l-116 0 -11 28 c-6 15 -26 59 -44 98 -62 133 -57 181 35 354 48 89
13 188 -97 273 -117 90 -167 169 -146 232 l9 27 29 -24 c17 -14 66 -49 110
-79 69 -46 87 -54 127 -54 65 0 101 34 102 98 1 54 -12 71 -104 133 -129 88
-136 81 69 76 l181 -4 35 35 c37 37 45 74 24 120 -20 44 -53 54 -214 60 -83 4
-164 9 -181 13 -29 5 -30 8 -30 59 1 64 -27 101 -83 111 -20 3 -46 12 -58 20
-42 26 -47 51 -44 194 2 134 2 135 -29 198 -41 80 -97 126 -244 197 -121 59
-212 91 -368 130 -111 28 -156 51 -183 92 -16 24 -65 182 -65 208 0 6 22 19
49 29 125 45 280 179 330 286 30 65 39 164 21 229 -18 69 -106 151 -193 179
-93 30 -185 30 -253 -2 -66 -31 -89 -60 -118 -150 -5 -16 -12 -11 -37 30 -46
73 -118 143 -174 170 -57 27 -122 30 -197 9z m705 -259 c38 -16 67 -42 67 -61
0 -8 -12 -1 -29 16 -20 19 -40 29 -59 29 -36 0 -62 9 -62 21 0 13 46 11 83 -5z
m-115 -219 c41 -10 50 -16 40 -24 -17 -14 -95 -53 -105 -53 -5 0 -13 21 -20
48 -6 26 -15 56 -19 66 -7 18 -5 18 22 -2 16 -12 53 -28 82 -35z m-1398 -952
c795 -84 1046 -149 1186 -309 72 -83 136 -223 294 -644 196 -526 233 -655 261
-908 18 -169 0 -402 -40 -507 -10 -27 -12 -27 -33 -13 -31 22 -58 20 -85 -6
-44 -41 -17 -118 42 -118 14 0 25 -2 25 -5 0 -25 -86 -167 -152 -251 -51 -65
-169 -173 -149 -137 17 33 13 68 -11 109 -18 30 -19 39 -8 42 8 3 25 16 38 29
28 28 24 67 -10 96 -42 35 -108 9 -108 -44 0 -25 -4 -29 -27 -29 -16 0 -33 -4
-39 -8 -20 -14 -44 -57 -44 -78 0 -35 34 -106 66 -137 23 -23 35 -28 66 -25
21 2 38 3 38 2 0 -4 -138 -94 -144 -94 -4 0 -23 -10 -44 -23 -143 -89 -450
-178 -704 -206 -239 -27 -630 -9 -878 40 -220 43 -518 129 -471 137 42 7 69
32 85 79 22 64 20 87 -10 122 -19 23 -34 31 -57 31 -59 0 -75 -10 -96 -60 -27
-63 -27 -114 0 -141 l21 -21 -24 7 c-51 16 -321 145 -380 182 -35 21 -76 45
-93 53 -16 8 -62 47 -101 85 -84 82 -138 185 -175 330 -21 80 -23 113 -23 290
1 212 14 326 70 569 154 686 318 1081 543 1307 156 157 337 241 582 268 109
13 405 5 589 -14z m-2406 -484 c3 -22 20 -75 37 -118 34 -83 59 -166 59 -196
0 -17 -1 -17 -31 0 -122 71 -189 196 -148 276 21 40 60 87 68 82 5 -2 11 -22
15 -44z m644 -402 l31 -10 -15 -42 c-8 -23 -37 -125 -65 -227 -27 -102 -52
-191 -54 -198 -11 -30 -115 58 -149 125 -45 90 -24 205 52 285 65 68 133 91
200 67z m3680 -311 c78 -37 132 -141 132 -255 0 -86 -43 -163 -112 -199 -36
-18 -38 -18 -38 9 0 30 -50 216 -94 353 -20 61 -36 114 -36 119 0 13 103 -5
148 -27z m-114 -1749 c96 -262 172 -522 159 -542 -3 -6 -25 30 -48 79 -84 178
-169 228 -249 147 -35 -34 -35 -88 -1 -134 67 -93 106 -201 130 -364 47 -317
-27 -665 -158 -746 -47 -28 -64 -24 -87 21 -32 62 -49 155 -65 347 -25 290
-52 418 -115 543 -54 107 -176 248 -232 269 -67 25 -138 -27 -138 -101 0 -36
7 -47 64 -106 67 -71 121 -148 108 -156 -18 -11 -179 -36 -233 -36 -74 0 -225
-24 -350 -55 -225 -57 -451 -146 -777 -307 -236 -116 -193 -119 -356 22 -199
172 -285 308 -315 500 -8 53 -16 70 -41 93 -44 39 -101 38 -142 -4 -31 -30
-31 -31 -25 -110 8 -97 48 -221 107 -322 69 -121 168 -227 349 -375 257 -211
378 -344 358 -395 -3 -9 -25 -26 -49 -39 -89 -46 -266 -19 -439 68 -267 134
-555 410 -604 578 -21 72 -54 101 -112 101 -38 0 -49 -5 -75 -34 -27 -30 -30
-39 -26 -81 6 -63 62 -180 129 -270 57 -76 194 -216 261 -267 21 -15 37 -33
38 -38 0 -6 -24 -30 -54 -54 -83 -66 -264 -256 -336 -353 -129 -174 -241 -383
-320 -598 -23 -63 -43 -117 -45 -118 -8 -8 -95 283 -128 428 -74 317 -103 620
-94 965 4 121 11 263 17 315 47 405 152 775 311 1092 l50 101 32 -31 c156
-148 618 -359 986 -452 491 -123 998 -139 1420 -44 417 93 746 283 951 546 41
53 76 95 77 94 2 -2 32 -81 67 -177z m-4664 -246 c-86 -238 -170 -432 -305
-705 -93 -185 -99 -214 -62 -269 55 -82 195 -113 507 -113 151 0 229 4 298 17
50 9 95 17 100 17 4 0 6 -98 4 -217 -3 -216 12 -434 42 -636 l13 -88 -61 -31
c-34 -17 -158 -85 -276 -150 -118 -66 -238 -133 -267 -149 l-51 -28 -17 77
c-40 184 -132 418 -230 592 -80 141 -122 198 -279 379 -128 149 -191 242 -276
409 -99 197 -262 430 -447 643 -13 15 -6 18 84 34 149 26 445 91 568 126 88
24 391 119 650 203 22 7 42 12 44 10 2 -2 -16 -56 -39 -121z m5350 -558 c176
-38 315 -86 465 -160 214 -107 223 -91 -95 -168 -299 -74 -861 -200 -866 -195
-1 2 4 51 13 108 15 105 13 373 -3 429 l-7 24 184 -5 c148 -5 208 -11 309 -33z
m-1236 -177 c3 -18 12 -114 21 -213 8 -99 18 -203 21 -230 l6 -50 -198 -48
c-496 -120 -868 -243 -1219 -401 -58 -26 -72 -30 -50 -14 47 35 103 98 121
136 34 73 -14 215 -116 339 l-51 63 100 50 c177 88 403 187 526 230 170 58
284 85 490 115 98 15 206 32 240 40 95 21 102 20 109 -17z m-1914 -982 c152
-48 292 -56 391 -20 23 7 44 14 48 14 3 0 -52 -31 -124 -69 -557 -293 -1008
-708 -1266 -1165 -28 -48 -79 -154 -115 -235 -35 -80 -77 -173 -93 -206 -28
-56 -30 -58 -30 -28 -2 69 32 267 75 441 155 632 359 989 750 1313 l91 76 99
-49 c54 -26 133 -59 174 -72z"/>
<path d="M5453 7445 c-73 -16 -156 -58 -184 -93 -29 -37 -25 -88 10 -123 38
-37 66 -37 143 4 60 31 65 32 197 33 133 1 135 2 158 28 54 63 16 147 -73 160
-73 10 -183 6 -251 -9z"/>
<path d="M6906 7330 c-50 -9 -76 -41 -76 -92 0 -62 29 -84 120 -90 80 -6 143
-27 200 -65 74 -49 159 -14 160 67 0 49 -20 74 -93 114 -99 55 -227 82 -311
66z"/>
<path d="M5623 6704 c-41 -21 -77 -90 -67 -131 18 -77 61 -113 131 -113 51 0
101 32 120 77 48 116 -71 223 -184 167z"/>
<path d="M6772 6630 c-67 -41 -78 -135 -23 -191 37 -37 75 -45 125 -28 47 16
86 67 86 113 0 44 -34 95 -75 112 -47 19 -74 18 -113 -6z"/>
<path d="M6034 6079 c-30 -15 -54 -61 -61 -117 -5 -44 -3 -51 18 -66 69 -48
149 15 149 118 0 35 -5 48 -22 60 -25 18 -53 19 -84 5z"/>
<path d="M6305 6040 c-29 -32 -24 -78 13 -112 50 -43 109 -35 135 20 20 42 10
70 -33 92 -50 26 -92 25 -115 0z"/>
<path d="M5785 5636 c-163 -22 -275 -96 -331 -219 -26 -55 -29 -73 -29 -157 1
-83 4 -102 28 -151 44 -91 134 -163 239 -190 23 -6 178 -14 343 -19 262 -6
311 -10 385 -30 122 -32 243 -26 320 15 94 52 140 132 140 247 0 239 -266 447
-645 503 -118 18 -323 18 -450 1z"/>
<path d="M4726 5158 c-9 -12 -16 -29 -16 -38 -1 -13 -2 -13 -13 0 -15 19 -61
40 -88 40 -32 0 -79 -56 -79 -93 0 -40 53 -119 91 -136 58 -25 123 17 124 79
0 36 1 38 35 38 45 0 74 34 66 77 -8 38 -30 55 -72 55 -23 0 -38 -7 -48 -22z"/>
<path d="M7030 5110 c-43 -43 -12 -113 50 -113 16 0 39 8 50 18 43 39 11 115
-50 115 -17 0 -39 -9 -50 -20z"/>
<path d="M5175 4995 c-30 -30 -31 -54 -4 -89 25 -32 66 -34 97 -6 28 26 28 69
2 98 -27 29 -65 28 -95 -3z"/>
<path d="M4992 4827 c-59 -62 18 -151 86 -100 36 26 40 68 11 99 -29 31 -69
31 -97 1z"/>
<path d="M6940 4810 c-41 -41 -12 -120 45 -120 39 0 79 44 71 78 -14 57 -78
80 -116 42z"/>
<path d="M7170 4800 c-41 -41 -10 -120 47 -120 29 0 73 42 73 68 0 59 -79 93
-120 52z"/>
<path d="M6485 4774 c-31 -33 -38 -73 -33 -170 3 -69 6 -79 31 -100 40 -34 87
-32 124 5 26 25 31 27 48 15 28 -21 71 -17 95 8 23 25 24 36 10 72 -14 39 -51
52 -89 33 l-31 -15 0 58 c0 48 -4 64 -26 89 -35 42 -93 44 -129 5z"/>
<path d="M5444 4724 c-20 -19 -24 -31 -20 -52 21 -86 136 -80 136 8 0 67 -68
93 -116 44z"/>
<path d="M6007 4662 c-47 -49 -30 -113 51 -199 39 -42 87 -45 131 -7 41 34 41
77 1 132 -16 23 -30 45 -30 48 0 4 -12 17 -27 30 -40 34 -91 32 -126 -4z"/>
<path d="M6305 4682 c-79 -16 -70 -132 10 -132 60 0 92 70 54 116 -12 15 -38
21 -64 16z"/>
<path d="M5782 4664 c-28 -20 -31 -83 -4 -107 43 -39 112 -8 112 49 0 62 -58
94 -108 58z"/>
<path d="M2800 4208 c-84 -27 -292 -29 -428 -5 -121 22 -126 22 -162 -10 -22
-20 -33 -40 -37 -70 -5 -38 -2 -46 28 -76 31 -31 42 -35 144 -50 172 -26 262
-30 365 -18 136 16 235 47 265 83 36 42 34 96 -4 137 -35 38 -74 40 -171 9z"/>
<path d="M3702 2936 c-37 -20 -84 -85 -213 -292 -138 -223 -144 -235 -129
-280 24 -71 112 -99 163 -51 14 12 80 112 147 222 68 110 136 215 151 233 79
90 -17 225 -119 168z"/>
<path d="M7878 2903 c7 -3 16 -2 19 1 4 3 -2 6 -13 5 -11 0 -14 -3 -6 -6z"/>
<path d="M5215 1930 c-3 -6 1 -7 9 -4 18 7 21 14 7 14 -6 0 -13 -4 -16 -10z"/>
<path d="M5130 1869 c0 -5 5 -7 10 -4 6 3 10 8 10 11 0 2 -4 4 -10 4 -5 0 -10
-5 -10 -11z"/>
<path d="M5156 1853 c-6 -14 -5 -15 5 -6 7 7 10 15 7 18 -3 3 -9 -2 -12 -12z"/>
<path d="M5080 1779 c0 -5 5 -7 10 -4 6 3 10 8 10 11 0 2 -4 4 -10 4 -5 0 -10
-5 -10 -11z"/>
<path d="M4606 1053 c-6 -14 -5 -15 5 -6 7 7 10 15 7 18 -3 3 -9 -2 -12 -12z"/>
</g>
</svg>
